<svg width="16" height="16" viewBox="0 0 16 16" fill="none" xmlns="http://www.w3.org/2000/svg">
<path d="M4.89386 0.552453C4.09585 0.590104 3.55089 0.717454 3.07449 0.904655C2.58143 1.09681 2.16353 1.35466 1.74772 1.77196C1.33192 2.18926 1.07587 2.60746 0.885066 3.10126C0.700414 3.57871 0.575313 4.12412 0.540063 4.92257C0.504812 5.72102 0.497012 5.97767 0.500912 8.01438C0.504812 10.0511 0.513812 10.3064 0.552513 11.1065C0.590613 11.9043 0.717514 12.4491 0.904716 12.9257C1.09717 13.4187 1.35472 13.8365 1.77218 14.2525C2.18963 14.6684 2.60753 14.9239 3.10254 15.115C3.57954 15.2993 4.1251 15.425 4.92341 15.46C5.72172 15.4949 5.97867 15.503 8.01479 15.4991C10.0509 15.4952 10.3073 15.4862 11.1072 15.4483C11.9072 15.4103 12.4491 15.2825 12.9258 15.0962C13.4189 14.9033 13.8369 14.6462 14.2526 14.2286C14.6683 13.811 14.9242 13.3925 15.1148 12.8984C15.2996 12.4214 15.4252 11.8758 15.4598 11.0781C15.4948 10.2776 15.503 10.022 15.4991 7.98558C15.4952 5.94917 15.4861 5.69387 15.4481 4.89407C15.4102 4.09427 15.2831 3.55111 15.0961 3.07426C14.9033 2.58121 14.6461 2.16376 14.2288 1.74751C13.8114 1.33126 13.3926 1.07551 12.8987 0.885305C12.4214 0.700654 11.8761 0.574803 11.0778 0.540303C10.2795 0.505803 10.0226 0.496953 7.98569 0.500853C5.94882 0.504753 5.69382 0.513453 4.89386 0.552453ZM4.98146 14.1107C4.2502 14.0789 3.85315 13.9574 3.58854 13.8557C3.23814 13.7207 2.98854 13.5575 2.72483 13.2963C2.46113 13.0352 2.29913 12.7847 2.16233 12.435C2.05958 12.1704 1.93583 11.7738 1.90163 11.0426C1.86443 10.2522 1.85663 10.0149 1.85228 8.01258C1.84793 6.01022 1.85558 5.77322 1.89023 4.98257C1.92143 4.25192 2.04368 3.85441 2.14523 3.58996C2.28023 3.23911 2.44283 2.98996 2.70458 2.72641C2.96634 2.46286 3.21609 2.30056 3.56604 2.16376C3.83035 2.06056 4.22695 1.93786 4.95791 1.90306C5.74887 1.86556 5.98587 1.85806 7.98794 1.85371C9.99001 1.84936 10.2276 1.85686 11.0189 1.89166C11.7495 1.92346 12.1472 2.04451 12.4113 2.14666C12.7619 2.28166 13.0113 2.44381 13.2749 2.70601C13.5384 2.96821 13.7009 3.21706 13.8377 3.56776C13.941 3.83131 14.0637 4.22777 14.0982 4.95917C14.1359 5.75012 14.1445 5.98727 14.1481 7.98918C14.1517 9.99109 14.1446 10.2288 14.11 11.0192C14.078 11.7504 13.9568 12.1476 13.8549 12.4125C13.7199 12.7628 13.5572 13.0125 13.2953 13.2759C13.0334 13.5393 12.7839 13.7016 12.4338 13.8384C12.1698 13.9415 11.7728 14.0645 11.0424 14.0993C10.2515 14.1365 10.0145 14.1443 8.01164 14.1487C6.00882 14.153 5.77257 14.1449 4.98161 14.1107M11.0957 3.99152C11.096 4.16953 11.149 4.34346 11.2482 4.49131C11.3474 4.63915 11.4881 4.75427 11.6527 4.82211C11.8173 4.88995 11.9983 4.90745 12.1728 4.87241C12.3474 4.83736 12.5076 4.75135 12.6332 4.62524C12.7589 4.49914 12.8443 4.3386 12.8787 4.16394C12.9131 3.98928 12.895 3.80834 12.8265 3.644C12.7581 3.47967 12.6424 3.33932 12.4942 3.24071C12.346 3.1421 12.1719 3.08966 11.9939 3.09001C11.7552 3.09049 11.5265 3.18573 11.3581 3.35478C11.1897 3.52384 11.0953 3.75287 11.0957 3.99152ZM4.1491 8.00748C4.1533 10.1345 5.88072 11.8548 8.00729 11.8508C10.1339 11.8467 11.8554 10.1195 11.8514 7.99248C11.8473 5.86547 10.1195 4.14467 7.99259 4.14887C5.86572 4.15307 4.14505 5.88077 4.1491 8.00748ZM5.50001 8.00478C5.49903 7.51032 5.64471 7.02667 5.9186 6.61499C6.1925 6.20332 6.58232 5.88211 7.03878 5.69198C7.49523 5.50185 7.99781 5.45135 8.48297 5.54685C8.96813 5.64236 9.41407 5.87958 9.7644 6.22853C10.1147 6.57748 10.3537 7.02247 10.4511 7.50724C10.5486 7.99201 10.5001 8.49479 10.3117 8.95199C10.1234 9.40919 9.80376 9.80028 9.39317 10.0758C8.98258 10.3513 8.49951 10.4989 8.00504 10.4999C7.67671 10.5006 7.35147 10.4366 7.04788 10.3116C6.74429 10.1865 6.4683 10.0029 6.23568 9.77123C6.00306 9.53953 5.81836 9.26427 5.69213 8.96118C5.56591 8.65809 5.50062 8.3331 5.50001 8.00478Z" fill="black"/>
</svg>
